<svg width="18" height="18" viewBox="0 0 18 18" fill="none" xmlns="http://www.w3.org/2000/svg">
<g clip-path="url(#clip0)">
<path d="M7.2745 0.16759L8.069 3.17481C8.67759 3.07954 9.29763 3.07954 9.90622 3.17481L10.7131 0.16759C9.57351 -0.0558632 8.40164 -0.0558632 7.26206 0.16759C7.26209 0.16759 7.2745 0.16759 7.2745 0.16759Z" fill="#3E7E7C"/>
<path opacity="0.9" d="M11.1165 3.49758C11.6925 3.72104 12.2287 4.0354 12.7054 4.42862L14.8965 2.21277C14.0231 1.44868 13.009 0.862451 11.911 0.487265L11.1165 3.49758Z" fill="#3E7E7C"/>
<path opacity="0.8" d="M13.5839 5.29449C13.9771 5.77117 14.2914 6.30744 14.5149 6.88344L17.5252 6.07654C17.1448 4.98195 16.5545 3.97209 15.7873 3.10345L13.5839 5.29449Z" fill="#3E7E7C"/>
<path opacity="0.7" d="M14.8966 8.99998C14.8972 9.31157 14.8733 9.62316 14.8252 9.93103L17.8324 10.7379C18.0559 9.59834 18.0559 8.42648 17.8324 7.28689L14.8252 8.06898C14.8733 8.37712 14.8972 8.68839 14.8966 8.99998Z" fill="#3E7E7C"/>
<path opacity="0.6" d="M13.5838 12.7055L15.7873 14.8966C16.5514 14.0232 17.1376 13.0091 17.5128 11.9111L14.5024 11.1041C14.284 11.6835 13.9736 12.2245 13.5838 12.7055Z" fill="#3E7E7C"/>
<path opacity="0.5" d="M11.1165 14.5024L11.9234 17.5127C13.017 17.136 14.0269 16.5497 14.8965 15.7872L12.693 13.5838C12.2194 13.9714 11.6872 14.2814 11.1165 14.5024Z" fill="#3E7E7C"/>
<path opacity="0.4" d="M7.27453 17.8324C8.41411 18.0558 9.58597 18.0558 10.7256 17.8324L9.93107 14.8251C9.32248 14.9204 8.70243 14.9204 8.09384 14.8251L7.27453 17.8324Z" fill="#3E7E7C"/>
<path opacity="0.3" d="M3.1035 15.7872C3.97681 16.5513 4.991 17.1376 6.089 17.5127L6.8959 14.5024C6.3199 14.2789 5.78363 13.9646 5.30695 13.5713L3.1035 15.7872Z" fill="#3E7E7C"/>
<path opacity="0.2" d="M0.487161 11.9234C0.86393 13.0171 1.45016 14.0269 2.21266 14.8965L4.41611 12.6931C4.02289 12.2164 3.70852 11.6801 3.48507 11.1041L0.487161 11.9234Z" fill="#3E7E7C"/>
<path opacity="0.1" d="M-3.55969e-05 8.99998C-0.00126606 9.57939 0.0548781 10.1573 0.167553 10.7255L3.17477 9.93099C3.07949 9.3224 3.07949 8.70235 3.17477 8.09376L0.167553 7.28686C0.0558273 7.85111 -0.000352001 8.42493 -3.55969e-05 8.99998Z" fill="#3E7E7C"/>
<path opacity="0.1" d="M0.487102 6.07653L3.49746 6.88344C3.72091 6.30744 4.03528 5.77117 4.4285 5.29448L2.22505 3.09103C1.45664 3.9634 0.866051 4.97762 0.487102 6.07653Z" fill="#3E7E7C"/>
<path opacity="0.1" d="M3.1035 2.21277L5.30695 4.41622C5.78363 4.02299 6.3199 3.70863 6.8959 3.48518L6.089 0.474821C4.99008 0.854086 3.97586 1.44436 3.1035 2.21277Z" fill="#3E7E7C"/>
</g>
<defs>
<clipPath id="clip0">
<rect width="18" height="18" fill="white" transform="matrix(-1 0 0 1 18 0)"/>
</clipPath>
</defs>
</svg>
