<svg width="84" height="92" viewBox="0 0 84 92" fill="none" xmlns="http://www.w3.org/2000/svg">
<path d="M39.6539 90.7058C41.0014 91.4254 42.6926 91.4208 44.0401 90.7013C80.7618 70.9746 83.3697 32.4333 83.3376 21.4746C83.3341 20.5938 83.0739 19.7332 82.5887 18.9981C82.1035 18.2629 81.4144 17.6853 80.6059 17.3358L43.7101 0.991668C43.1229 0.732845 42.4882 0.599556 41.8465 0.600345C41.2048 0.601135 40.5704 0.735985 39.9839 0.996251L3.34469 17.3404C2.54809 17.6901 1.8688 18.2613 1.38774 18.9862C0.906672 19.711 0.64412 20.5589 0.63136 21.4288C0.475527 32.3325 2.67094 70.9563 39.6539 90.7058ZM26.7564 38.1763L37.2659 48.6858L56.9422 29.0096L63.423 35.4904L37.2659 61.6475L20.2755 44.6571L26.7564 38.1763V38.1763Z" fill="#58B4AE"/>
</svg>
